<svg xmlns="http://www.w3.org/2000/svg" version="1.1" xmlns:xlink="http://www.w3.org/1999/xlink" xmlns:svgjs="http://svgjs.dev/svgjs" width="1000" height="431" viewBox="0 0 1000 431"><g transform="matrix(1,0,0,1,-0.6060606060606801,0.41498842050899043)"><svg viewBox="0 0 396 171" data-background-color="#ffffff" preserveAspectRatio="xMidYMid meet" height="431" width="1000" xmlns="http://www.w3.org/2000/svg" xmlns:xlink="http://www.w3.org/1999/xlink"><g id="tight-bounds" transform="matrix(1,0,0,1,0.24000000000003752,-0.16464737797456053)"><svg viewBox="0 0 395.5199999999999 171.32929475594912" height="171.32929475594912" width="395.5199999999999"><g><svg viewBox="0 0 397.4975999999999 172.18594122972885" height="171.32929475594912" width="395.5199999999999"><g><rect width="397.4975999999999" height="4.2713846955159225" x="0" y="109.36836348449778" fill="#89939e" opacity="1" stroke-width="0" stroke="transparent" fill-opacity="1" class="rect-i$-0" data-fill-palette-color="primary" rx="1%" id="i$-0" data-palette-color="#89939e"></rect></g><g transform="matrix(1,0,0,1,0.9887999999999693,124.8213835085894)"><svg viewBox="0 0 395.52 47.364557721139434" height="47.364557721139434" width="395.52"><g id="textblocktransform"><svg viewBox="0 0 395.52 47.364557721139434" height="47.364557721139434" width="395.52" id="textblock"><g><svg viewBox="0 0 395.52 47.364557721139434" height="47.364557721139434" width="395.52"><g transform="matrix(1,0,0,1,0,0)"><svg width="395.52" viewBox="3.5 -31.7 265.33000000000004 31.95" height="47.364557721139434" data-palette-color="#89939e"><g class="wordmark-text-0" data-fill-palette-color="primary" id="text-0"><path d="M15.95-11.3Q14-11.3 12.68-11.43 11.35-11.55 9.2-11.85L9.2-11.85 9.15-6.6Q9.1-5.25 9.1-2.75L9.1-2.75Q9.1-1.45 8.38-0.73 7.65 0 6.75 0L6.75 0Q5.1 0 4.3-0.43 3.5-0.85 3.5-1.95L3.5-1.95Q3.5-3.4 3.75-6.05L3.75-6.05Q4.3-11.75 4.3-17.75L4.3-17.75Q4.3-23.35 3.95-28.3L3.95-28.3Q4-29 4.67-29.9 5.35-30.8 6.4-30.9L6.4-30.9Q7.55-30.9 10.05-31.3L10.05-31.3Q12.65-31.7 14-31.7L14-31.7Q18.1-31.7 20.38-30.9 22.65-30.1 24.95-28.25L24.95-28.25Q27.45-24.35 27.45-22.75L27.45-22.75Q27.45-19.4 26.1-16.8 24.75-14.2 22.15-12.75 19.55-11.3 15.95-11.3L15.95-11.3ZM14.8-27.45Q13.2-27.45 12.03-27.28 10.85-27.1 9.2-26.7L9.2-26.7Q9.4-22.1 9.4-20L9.4-20Q9.4-17.85 9.25-16.4L9.25-16.4Q11.4-15.95 12.65-15.83 13.9-15.7 15.45-15.7L15.45-15.7Q19.15-15.7 20.68-17.63 22.2-19.55 22.2-22.1L22.2-22.1Q22.2-22.85 21.75-23.95 21.3-25.05 20.95-25.4L20.95-25.4Q19.6-26.6 18.32-27.03 17.05-27.45 14.8-27.45L14.8-27.45ZM51-16.05Q51.4-15.35 51.65-14.03 51.9-12.7 51.9-11.65L51.9-11.65Q51.9-9.7 51.05-6.1L51.05-6.1Q47.6 0.2 40.85 0.2L40.85 0.2Q38.35 0.2 35.75-1.45 33.15-3.1 32.15-5.25L32.15-5.25Q30.8-9.55 30.8-10.7L30.8-10.7Q30.8-12.7 31.67-14.95 32.55-17.2 33.9-18.85L33.9-18.85Q34.75-20 36.95-20.83 39.15-21.65 40.95-21.65L40.95-21.65Q44.45-21.65 46.9-20.33 49.35-19 51-16.05L51-16.05ZM46.65-8Q46.9-8.65 46.9-11.35L46.9-11.35Q46.9-12.8 46.37-14.2 45.85-15.6 44.85-16.6L44.85-16.6Q44.75-16.7 44.3-16.93 43.85-17.15 43.07-17.38 42.3-17.6 41.3-17.6L41.3-17.6Q38.5-17.6 37.2-15.35 35.9-13.1 35.9-10.25L35.9-10.25Q35.9-9.75 36.17-8.35 36.45-6.95 36.65-6.6L36.65-6.6Q36.8-6.25 37.42-5.63 38.05-5 38.97-4.53 39.9-4.05 40.9-4.05L40.9-4.05Q43.15-4.05 44.5-5.13 45.85-6.2 46.65-8L46.65-8ZM64.2-2Q64.2-1.15 63.55-0.5 62.9 0.15 61.95 0.15L61.95 0.15Q60.45 0.15 59.75-0.43 59.05-1 59.05-2.55L59.05-2.55Q59.05-4.4 58.95-7.4L58.95-7.4Q58.85-9.9 58.85-11.6L58.85-11.6Q58.85-12.4 58.95-13.7L58.95-13.7Q59.05-14.9 59.05-15.5L59.05-15.5Q58.9-16.45 58.3-17.07 57.7-17.7 56.75-17.7L56.75-17.7Q56.3-17.7 56-18.13 55.7-18.55 55.7-19L55.7-19Q55.7-20.15 56.62-20.75 57.55-21.35 58.85-21.35L58.85-21.35Q61.55-21.35 62.6-18.15L62.6-18.15Q63.9-19.65 65.57-20.58 67.25-21.5 68.8-21.5L68.8-21.5Q70.65-21.5 72.17-20.5 73.7-19.5 73.7-17.8L73.7-17.8Q73.7-16.85 72.87-15.85 72.05-14.85 71.2-14.85L71.2-14.85Q70.75-14.85 70.42-15.08 70.09-15.3 69.65-15.75L69.65-15.75Q69.15-16.25 68.8-16.48 68.45-16.7 68-16.7L68-16.7Q67.2-16.7 66.5-16.45 65.8-16.2 65.55-15.85L65.55-15.85Q64.75-14.6 64.37-13.6 64-12.6 64-11.45L64-11.45Q64-10.6 63.95-10.1L63.95-10.1 63.9-7.25Q63.9-6.6 63.95-5.8 64-5 64.05-4.6L64.05-4.6Q64.2-3.25 64.2-2L64.2-2ZM79.04-17.1L76.64-17.3Q75.94-17.4 75.52-17.9 75.09-18.4 75.09-19.1L75.09-19.1Q75.09-19.45 75.27-19.85 75.44-20.25 75.79-20.55L75.79-20.55Q76.44-21.2 79.29-21.2L79.29-21.2Q79.69-23.15 79.69-25.15L79.69-25.15Q79.69-25.9 79.64-26.45 79.59-27 79.59-27.3L79.59-27.3Q79.59-28.4 80.42-28.95 81.24-29.5 82.29-29.5L82.29-29.5Q83.59-29.5 84.07-28.85 84.54-28.2 84.54-26.45L84.54-26.45Q84.54-23.85 84.09-21.35L84.09-21.35Q84.89-21.35 86.29-21.45L86.29-21.45Q88.19-21.55 89.04-21.55L89.04-21.55Q89.89-21.55 90.52-21.13 91.14-20.7 91.14-19.95L91.14-19.95Q91.14-18 89.39-17.65L89.39-17.65Q87.54-17.2 83.64-17.1L83.64-17.1Q83.49-15.15 83.49-12.85L83.49-12.85Q83.49-9.25 83.94-6.95L83.94-6.95Q84.24-5.35 84.97-4.63 85.69-3.9 87.14-3.9L87.14-3.9Q87.99-3.9 88.89-4.35L88.89-4.35Q89.49-4.7 89.99-4.7L89.99-4.7Q90.69-4.7 91.02-4.25 91.34-3.8 91.34-3.05L91.34-3.05Q91.34-1.65 89.84-0.73 88.34 0.2 85.99 0.2L85.99 0.2Q84.54 0.2 83.07-0.5 81.59-1.2 80.59-2.25L80.59-2.25Q80.44-2.4 80.04-3.4 79.64-4.4 79.34-5.55L79.34-5.55Q78.84-7.9 78.84-12.15L78.84-12.15Q78.84-14 79.04-17.1L79.04-17.1Z" fill="#89939e" data-fill-palette-color="primary"></path><path d="M117.39-9.05Q117.39-6.7 116.32-5.03 115.24-3.35 112.79-1.95L112.79-1.95Q111.14-0.95 108.94-0.45 106.74 0.05 104.49 0.05L104.49 0.05Q102.19 0.05 98.79-1.45L98.79-1.45Q96.34-2.65 94.92-4.3 93.49-5.95 93.49-7.9L93.49-7.9Q93.49-9.25 94.09-9.88 94.69-10.5 96.04-10.5L96.04-10.5Q96.74-10.5 97.49-9.93 98.24-9.35 98.39-8.8L98.39-8.8Q99.09-6.75 100.84-5.68 102.59-4.6 105.19-4.6L105.19-4.6Q108.19-4.6 110.22-5.7 112.24-6.8 112.24-8.65L112.24-8.65Q112.24-10.45 110.04-11.85 107.84-13.25 105.54-13.8L105.54-13.8Q102.24-14.7 99.69-15.95L99.69-15.95Q97.04-17.25 95.74-19.15 94.44-21.05 94.44-23.15L94.44-23.15Q94.44-25.1 95.79-27.13 97.14-29.15 98.99-30.05L98.99-30.05Q99.99-30.55 102.42-31.13 104.84-31.7 105.94-31.7L105.94-31.7Q107.39-31.7 109.14-31.35 110.89-31 111.99-30.35L111.99-30.35Q114.19-29.1 115.24-28.1 116.29-27.1 116.29-25.6L116.29-25.6Q116.29-24.7 115.62-24 114.94-23.3 113.29-23.3L113.29-23.3Q112.89-23.3 112.49-23.65 112.09-24 111.49-24.7L111.49-24.7Q110.69-25.75 109.94-26.1L109.94-26.1Q109.19-26.35 107.77-26.65 106.34-26.95 105.24-26.95L105.24-26.95Q104.04-26.95 102.74-26.45 101.44-25.95 100.56-25.03 99.69-24.1 99.69-22.9L99.69-22.9Q99.69-21.9 100.62-21.18 101.54-20.45 102.84-20L102.84-20Q104.34-19.4 106.09-18.95L106.09-18.95Q108.39-18.25 109.87-17.68 111.34-17.1 112.74-16.25L112.74-16.25Q115.19-14.8 116.29-13.28 117.39-11.75 117.39-9.05L117.39-9.05ZM139.84-16.7Q139.84-14.5 137.59-14.5L137.59-14.5Q136.84-14.5 136.34-14.85 135.84-15.2 135.24-15.9L135.24-15.9Q133.74-17.55 132.64-17.55L132.64-17.55Q131.19-17.55 129.81-16.7 128.44-15.85 127.59-14.3 126.74-12.75 126.74-10.85L126.74-10.85Q126.74-8.75 127.56-7.35 128.39-5.95 130.14-4.95L130.14-4.95Q130.79-4.6 131.66-4.4 132.54-4.2 133.19-4.2L133.19-4.2Q134.64-4.2 136.84-5.35L136.84-5.35Q137.64-5.75 138.19-5.95 138.74-6.15 139.34-6.15L139.34-6.15Q139.89-6.15 140.59-5.65 141.29-5.15 141.29-4.4L141.29-4.4Q141.29-2.9 139.89-1.88 138.49-0.85 136.46-0.33 134.44 0.2 132.59 0.2L132.59 0.2Q129.64 0.2 127.11-1.15 124.59-2.5 123.09-4.88 121.59-7.25 121.59-10.25L121.59-10.25Q121.59-13.45 123.04-16.1 124.49-18.75 126.94-20.25 129.39-21.75 132.29-21.75L132.29-21.75Q133.94-21.75 135.69-21.15 137.44-20.55 138.64-19.4 139.84-18.25 139.84-16.7L139.84-16.7ZM168.29-2.4Q168.29-1.3 167.11-0.55 165.93 0.2 164.93 0.2L164.93 0.2Q163.04 0.2 161.91-0.28 160.79-0.75 159.84-2.05L159.84-2.05Q158.54-0.9 156.29-0.33 154.04 0.25 152.14 0.25L152.14 0.25Q149.04 0.25 147.04-1.43 145.04-3.1 145.04-6.35L145.04-6.35Q145.04-7.75 145.79-8.93 146.54-10.1 147.84-11L147.84-11Q149.29-11.95 151.14-12.48 152.99-13 154.99-13L154.99-13Q156.04-13 157.49-12.6 158.93-12.2 159.74-11.75L159.74-11.75 159.74-12.55Q159.74-15.25 158.43-16.28 157.14-17.3 154.24-17.3L154.24-17.3Q153.39-17.3 152.56-16.95 151.74-16.6 150.68-16L150.68-16Q149.29-15.25 148.04-15.25L148.04-15.25Q147.59-15.25 147.18-15.88 146.79-16.5 146.79-17L146.79-17Q146.79-18.45 148.16-19.5 149.54-20.55 151.43-21.08 153.34-21.6 154.84-21.6L154.84-21.6Q156.34-21.6 158.29-21.03 160.24-20.45 161.49-19.45L161.49-19.45Q162.99-18.15 163.81-16.43 164.64-14.7 164.64-12.65L164.64-12.65Q164.64-12 164.54-10.7L164.54-10.7Q164.43-9.3 164.43-8.3L164.43-8.3Q164.43-7.85 164.34-6.95L164.34-6.95Q164.24-5.85 164.24-5.2L164.24-5.2Q164.24-4.6 164.68-4.17 165.14-3.75 165.74-3.75L165.74-3.75 167.14-3.8Q167.68-3.8 167.99-3.4 168.29-3 168.29-2.4L168.29-2.4ZM152.18-3.7Q154.34-3.7 155.79-4.15 157.24-4.6 159.29-5.8L159.29-5.8Q159.49-6.65 159.54-8.05L159.54-8.05Q156.79-9.35 154.99-9.35L154.99-9.35Q152.93-9.35 151.34-8.6 149.74-7.85 149.74-5.95L149.74-5.95Q149.74-5 150.54-4.35 151.34-3.7 152.18-3.7L152.18-3.7ZM194.38-3.85Q194.63-3.75 195.18-3.6 195.73-3.45 195.98-3.3 196.23-3.15 196.23-2.85L196.23-2.85Q196.28-1.65 195.36-0.88 194.43-0.1 193.18-0.1L193.18-0.1Q191.23-0.1 190.13-1.15 189.03-2.2 188.53-4.35L188.53-4.35Q188.33-5.2 188.33-6.7L188.33-6.7Q188.33-7.55 188.43-9.45L188.43-9.45Q188.53-11.45 188.53-12.65L188.53-12.65Q188.53-14.4 187.56-15.73 186.58-17.05 184.83-17.05L184.83-17.05Q183.78-17.05 182.63-16.43 181.48-15.8 181.03-14.9L181.03-14.9Q180.28-13.45 179.98-11.75L179.98-11.75Q179.43-8.75 179.43-5.5L179.43-5.5Q179.43-3.95 179.48-3.1L179.48-3.1Q179.48-2.9 179.51-2.33 179.53-1.75 179.41-1.28 179.28-0.8 178.98-0.4L178.98-0.4Q178.73-0.15 178.21 0.03 177.68 0.2 177.23 0.2L177.23 0.2Q176.53 0.2 175.48-0.4 174.43-1 174.28-1.75L174.28-1.75 174.23-2.6Q174.23-3.05 174.33-3.65L174.33-3.65Q174.93-7.15 174.93-9.75L174.93-9.75Q174.93-10.9 174.88-11.55L174.88-11.55 174.83-13.9Q174.83-15.1 174.23-16.23 173.63-17.35 172.83-17.35L172.83-17.35Q172.58-17.35 172.13-17.18 171.68-17 171.38-17L171.38-17Q170.88-17 170.31-17.5 169.73-18 169.73-18.55L169.73-18.55Q169.73-19.6 170.43-20.25L170.43-20.25Q171.18-20.85 171.91-21.2 172.63-21.55 173.58-21.55L173.58-21.55Q174.38-21.55 174.88-21.4 175.38-21.25 176.23-20.75L176.23-20.75Q176.68-20.5 177.28-19.65 177.88-18.8 178.28-17.25L178.28-17.25Q179.58-19.65 181.51-20.63 183.43-21.6 186.43-21.6L186.43-21.6Q187.58-21.6 188.91-20.85 190.23-20.1 191.18-19.1L191.18-19.1Q192.08-18 192.68-16.38 193.28-14.75 193.28-13.45L193.28-13.45Q193.28-12.7 193.18-11L193.18-11Q193.03-9.65 193.03-8.15L193.03-8.15Q193.03-4.65 194.38-3.85L194.38-3.85ZM222.63-3.85Q222.88-3.75 223.43-3.6 223.98-3.45 224.23-3.3 224.48-3.15 224.48-2.85L224.48-2.85Q224.53-1.65 223.61-0.88 222.68-0.1 221.43-0.1L221.43-0.1Q219.48-0.1 218.38-1.15 217.28-2.2 216.78-4.35L216.78-4.35Q216.58-5.2 216.58-6.7L216.58-6.7Q216.58-7.55 216.68-9.45L216.68-9.45Q216.78-11.45 216.78-12.65L216.78-12.65Q216.78-14.4 215.81-15.73 214.83-17.05 213.08-17.05L213.08-17.05Q212.03-17.05 210.88-16.43 209.73-15.8 209.28-14.9L209.28-14.9Q208.53-13.45 208.23-11.75L208.23-11.75Q207.68-8.75 207.68-5.5L207.68-5.5Q207.68-3.95 207.73-3.1L207.73-3.1Q207.73-2.9 207.76-2.33 207.78-1.75 207.65-1.28 207.53-0.8 207.23-0.4L207.23-0.4Q206.98-0.15 206.46 0.03 205.93 0.2 205.48 0.2L205.48 0.2Q204.78 0.2 203.73-0.4 202.68-1 202.53-1.75L202.53-1.75 202.48-2.6Q202.48-3.05 202.58-3.65L202.58-3.65Q203.18-7.15 203.18-9.75L203.18-9.75Q203.18-10.9 203.13-11.55L203.13-11.55 203.08-13.9Q203.08-15.1 202.48-16.23 201.88-17.35 201.08-17.35L201.08-17.35Q200.83-17.35 200.38-17.18 199.93-17 199.63-17L199.63-17Q199.13-17 198.56-17.5 197.98-18 197.98-18.55L197.98-18.55Q197.98-19.6 198.68-20.25L198.68-20.25Q199.43-20.85 200.15-21.2 200.88-21.55 201.83-21.55L201.83-21.55Q202.63-21.55 203.13-21.4 203.63-21.25 204.48-20.75L204.48-20.75Q204.93-20.5 205.53-19.65 206.13-18.8 206.53-17.25L206.53-17.25Q207.83-19.65 209.76-20.63 211.68-21.6 214.68-21.6L214.68-21.6Q215.83-21.6 217.15-20.85 218.48-20.1 219.43-19.1L219.43-19.1Q220.33-18 220.93-16.38 221.53-14.75 221.53-13.45L221.53-13.45Q221.53-12.7 221.43-11L221.43-11Q221.28-9.65 221.28-8.15L221.28-8.15Q221.28-4.65 222.63-3.85L222.63-3.85ZM227.68-10.6Q227.68-12.5 228.38-14.43 229.08-16.35 230.23-17.95L230.23-17.95Q231.38-19.55 233.88-20.58 236.38-21.6 238.33-21.6L238.33-21.6Q240.33-21.6 242.4-21.05 244.48-20.5 245.28-19.35L245.28-19.35Q247.13-16.75 247.13-14.25L247.13-14.25Q247.13-12.9 246.55-11.95 245.98-11 244.93-9.9L244.93-9.9Q244.08-9 242.25-8.7 240.43-8.4 238.63-8.4L238.63-8.4Q237.48-8.4 235.83-8.63 234.18-8.85 232.63-9.2L232.63-9.2Q232.73-8.2 233.13-7.25 233.53-6.3 234.08-5.8L234.08-5.8Q235.08-4.85 236.15-4.6 237.23-4.35 238.93-4.35L238.93-4.35Q240.73-4.35 242.28-4.95L242.28-4.95Q243.53-5.4 244.33-5.4L244.33-5.4Q245.28-5.4 245.78-4.83 246.28-4.25 246.28-3.35L246.28-3.35Q246.28-2.1 244.83-1.3 243.38-0.5 241.5-0.13 239.63 0.25 238.48 0.25L238.48 0.25Q236.13 0.25 233.93-0.6 231.73-1.45 230.28-3L230.28-3Q229.08-4.4 228.38-6.38 227.68-8.35 227.68-10.6L227.68-10.6ZM238.58-17.35Q237.48-17.35 236.38-16.93 235.28-16.5 234.58-15.75L234.58-15.75Q233.68-14.8 233.35-14.23 233.03-13.65 232.93-12.65L232.93-12.65Q234.18-12.25 238.13-12.25L238.13-12.25Q240.28-12.25 241.45-12.9 242.63-13.55 242.63-14.6L242.63-14.6Q242.63-15.65 241.33-16.5 240.03-17.35 238.58-17.35L238.58-17.35ZM259.33-2Q259.33-1.15 258.68-0.5 258.03 0.15 257.08 0.15L257.08 0.15Q255.58 0.15 254.87-0.43 254.18-1 254.18-2.55L254.18-2.55Q254.18-4.4 254.08-7.4L254.08-7.4Q253.97-9.9 253.97-11.6L253.97-11.6Q253.97-12.4 254.08-13.7L254.08-13.7Q254.18-14.9 254.18-15.5L254.18-15.5Q254.03-16.45 253.43-17.07 252.83-17.7 251.87-17.7L251.87-17.7Q251.43-17.7 251.12-18.13 250.83-18.55 250.83-19L250.83-19Q250.83-20.15 251.75-20.75 252.68-21.35 253.97-21.35L253.97-21.35Q256.68-21.35 257.72-18.15L257.72-18.15Q259.03-19.65 260.7-20.58 262.37-21.5 263.93-21.5L263.93-21.5Q265.78-21.5 267.3-20.5 268.83-19.5 268.83-17.8L268.83-17.8Q268.83-16.85 268-15.85 267.18-14.85 266.33-14.85L266.33-14.85Q265.87-14.85 265.55-15.08 265.22-15.3 264.78-15.75L264.78-15.75Q264.28-16.25 263.93-16.48 263.58-16.7 263.12-16.7L263.12-16.7Q262.33-16.7 261.62-16.45 260.93-16.2 260.68-15.85L260.68-15.85Q259.87-14.6 259.5-13.6 259.12-12.6 259.12-11.45L259.12-11.45Q259.12-10.6 259.08-10.1L259.08-10.1 259.03-7.25Q259.03-6.6 259.08-5.8 259.12-5 259.18-4.6L259.18-4.6Q259.33-3.25 259.33-2L259.33-2Z" fill="#89939e" data-fill-palette-color="primary"></path></g></svg></g></svg></g></svg></g></svg></g><g transform="matrix(1,0,0,1,155.28363944669087,0)"><svg viewBox="0 0 86.93032110661815 98.18672815592207" height="98.18672815592207" width="86.93032110661815"><g><svg xmlns="http://www.w3.org/2000/svg" data-name="Glyph Icon" viewBox="7.21 4 49.58 56" x="0" y="0" height="98.18672815592207" width="86.93032110661815" class="icon-icon-0" data-fill-palette-color="accent" id="icon-0"><path d="M49.13 20.84l-16-9.26V4L55.7 17.05ZM32 50.52L16 41.26V22.74l16-9.26 16 9.26V41.26ZM30.91 11.58l-16 9.26L8.3 17.05 30.91 4ZM13.77 22.74V41.26L7.21 45.05V19Zm1.1 20.42l16 9.26V60L8.3 47Zm18.22 9.26l16-9.26L55.7 47 33.09 60ZM50.23 41.26V22.74L56.79 19v26.1Z" fill="#89939e" data-fill-palette-color="accent"></path></svg></g></svg></g><g></g></svg></g><defs></defs></svg><rect width="395.5199999999999" height="171.32929475594912" fill="none" stroke="none" visibility="hidden"></rect></g></svg></g></svg>